<svg xmlns="http://www.w3.org/2000/svg" xmlns:xlink="http://www.w3.org/1999/xlink" id="Layer_1" x="0" y="0" version="1.1" viewBox="0 0 20 20" xml:space="preserve" style="enable-background:new 0 0 1000 1000"><style type="text/css">.st0{font-family:&apos;WorkSans-Light&apos;}.st1{font-size:114.2306px}.st2{fill:#fff}.st3{display:none}.st4{display:inline}.st5{font-size:61px}.st6{font-size:48.3501px}</style><g><text class="st0 st1" transform="matrix(1 0 0 1 246.0186 528.1577)">afsan sarwer</text><g><circle cx="163.7" cy="500" r="52.4"/><g><g><g><g><path d="M163.7,455.6c0.2,5.3-0.7,10.6-2.1,15.7c-1.5,5.1-3.6,10.1-6.6,14.7c-1.5,2.3-3.2,4.4-5.2,6.4 c-2,1.9-4.2,3.7-6.6,5.1c-2.4,1.3-5.1,2.3-7.8,2.8c-2.7,0.4-5.5,0.4-8.1-0.2c2.6-0.7,5-1.4,7.3-2.4c2.2-1.1,4.3-2.4,6.2-3.9 c1.9-1.5,3.6-3.2,5.2-5c1.6-1.8,3-3.8,4.4-5.8c2.7-4.1,5-8.5,7.2-13.1C159.6,465.2,161.6,460.5,163.7,455.6z" class="st2"/></g><g><path d="M163.7,455.6c2.1,4.9,4.1,9.6,6.2,14.2c2.1,4.6,4.5,9,7.2,13.1c1.3,2.1,2.8,4,4.4,5.8 c1.6,1.8,3.3,3.5,5.2,5c1.9,1.5,3.9,2.8,6.2,3.9c2.3,1,4.7,1.8,7.3,2.4c-2.6,0.6-5.3,0.6-8.1,0.2c-2.7-0.5-5.4-1.5-7.8-2.8 c-2.5-1.3-4.7-3.1-6.6-5.1c-2-2-3.7-4.1-5.2-6.4c-3-4.6-5.1-9.6-6.6-14.7C164.3,466.2,163.4,460.9,163.7,455.6z" class="st2"/></g></g><g><g><path d="M163.7,544.4c-2.1-4.9-4.1-9.6-6.2-14.2c-2.1-4.6-4.5-9-7.2-13.1c-1.3-2.1-2.8-4-4.4-5.8 c-1.6-1.8-3.3-3.5-5.2-5c-1.9-1.5-3.9-2.8-6.2-3.9c-2.3-1-4.7-1.8-7.3-2.4c2.6-0.6,5.3-0.6,8.1-0.2c2.7,0.5,5.4,1.5,7.8,2.8 c2.5,1.3,4.7,3.1,6.6,5.1c2,2,3.7,4.1,5.2,6.4c3,4.6,5.1,9.6,6.6,14.7C163,533.8,163.9,539.1,163.7,544.4z" class="st2"/></g><g><path d="M163.7,544.4c-0.2-5.3,0.7-10.6,2.1-15.7c1.5-5.1,3.6-10.1,6.6-14.7c1.5-2.3,3.2-4.4,5.2-6.4 c2-1.9,4.2-3.7,6.6-5.1c2.4-1.3,5.1-2.3,7.8-2.8c2.7-0.4,5.5-0.4,8.1,0.2c-2.6,0.7-5,1.4-7.3,2.4c-2.2,1.1-4.3,2.4-6.2,3.9 c-1.9,1.5-3.6,3.2-5.2,5c-1.6,1.8-3,3.8-4.4,5.8c-2.7,4.1-5,8.5-7.2,13.1C167.7,534.8,165.7,539.5,163.7,544.4z" class="st2"/></g></g></g><g><g><path d="M130.7,463.3c3.4,2.3,6.5,5,9.4,7.7c2.9,2.8,5.7,5.6,8.4,8.6c2.7,3,5.2,6.1,7.7,9.3 c2.4,3.2,4.7,6.6,6.7,10.2c-3.4-2.3-6.5-5-9.4-7.7c-2.9-2.8-5.7-5.6-8.4-8.6c-2.7-3-5.2-6.1-7.7-9.3 C135,470.3,132.7,467,130.7,463.3z" class="st2"/></g><g><path d="M162.9,499.2c2-3.6,4.3-7,6.7-10.2c2.4-3.2,5-6.3,7.7-9.3c2.7-3,5.5-5.9,8.4-8.6c3-2.7,6-5.4,9.4-7.7 c-1.9,3.6-4.2,7-6.7,10.2c-2.4,3.2-5,6.3-7.7,9.3c-2.7,3-5.5,5.9-8.4,8.6C169.3,494.2,166.3,496.9,162.9,499.2z" class="st2"/></g></g><g><g><path d="M130.7,535.1c2-3.6,4.3-7,6.7-10.2c2.4-3.2,5-6.3,7.7-9.3c2.7-3,5.5-5.9,8.4-8.6c3-2.7,6-5.4,9.4-7.7 c-1.9,3.6-4.2,7-6.7,10.2c-2.4,3.2-5,6.3-7.7,9.3c-2.7,3-5.5,5.9-8.4,8.6C137.2,530.1,134.1,532.8,130.7,535.1z" class="st2"/></g><g><path d="M162.9,499.2c3.4,2.3,6.5,5,9.4,7.7c2.9,2.8,5.7,5.6,8.4,8.6c2.7,3,5.2,6.1,7.7,9.3 c2.4,3.2,4.7,6.6,6.7,10.2c-3.4-2.3-6.5-5-9.4-7.7c-2.9-2.8-5.7-5.6-8.4-8.6c-2.7-3-5.2-6.1-7.7-9.3 C167.1,506.2,164.8,502.9,162.9,499.2z" class="st2"/></g></g></g></g></g><g class="st3"><g class="st4"><g><text class="st0 st5" transform="matrix(1 0 0 1 398.5225 365.2079)">afsan</text></g><g><text class="st0 st6" transform="matrix(1 0 0 1 398.8936 393.3906)">sarwer</text></g></g><g class="st4"><circle cx="364" cy="362.1" r="21.6"/><g><g><g><g><path d="M364,343.8c0.1,2.2-0.3,4.4-0.9,6.5c-0.6,2.1-1.5,4.2-2.7,6.1c-1.2,1.9-2.8,3.6-4.9,4.7 c-1,0.6-2.1,1-3.2,1.2c-1.1,0.2-2.3,0.2-3.3-0.1c1.1-0.3,2.1-0.6,3-1c0.9-0.4,1.8-1,2.5-1.6c1.6-1.2,2.8-2.8,3.9-4.5 c1.1-1.7,2.1-3.5,3-5.4C362.3,347.8,363.1,345.8,364,343.8z" class="st2"/></g><g><path d="M364,343.8c0.9,2,1.7,3.9,2.6,5.8c0.9,1.9,1.9,3.7,3,5.4c1.1,1.7,2.4,3.2,3.9,4.5 c0.8,0.6,1.6,1.2,2.5,1.6c0.9,0.4,1.9,0.7,3,1c-1.1,0.2-2.2,0.2-3.3,0.1c-1.1-0.2-2.2-0.6-3.2-1.2c-2-1.1-3.6-2.8-4.9-4.7 c-1.2-1.9-2.1-3.9-2.7-6.1C364.2,348.2,363.9,346,364,343.8z" class="st2"/></g></g><g><g><path d="M364,380.4c-0.9-2-1.7-3.9-2.6-5.8c-0.9-1.9-1.9-3.7-3-5.4c-1.1-1.7-2.4-3.2-3.9-4.5 c-0.8-0.6-1.6-1.2-2.5-1.6c-0.9-0.4-1.9-0.7-3-1c1.1-0.2,2.2-0.2,3.3-0.1c1.1,0.2,2.2,0.6,3.2,1.2c2,1.1,3.6,2.8,4.9,4.7 c1.2,1.9,2.1,3.9,2.7,6.1C363.7,376.1,364.1,378.3,364,380.4z" class="st2"/></g><g><path d="M364,380.4c-0.1-2.2,0.3-4.4,0.9-6.5c0.6-2.1,1.5-4.2,2.7-6.1c1.2-1.9,2.8-3.6,4.9-4.7 c1-0.6,2.1-1,3.2-1.2c1.1-0.2,2.3-0.2,3.3,0.1c-1.1,0.3-2.1,0.6-3,1c-0.9,0.4-1.8,1-2.5,1.6c-1.6,1.2-2.8,2.8-3.9,4.5 c-1.1,1.7-2.1,3.5-3,5.4C365.7,376.5,364.8,378.4,364,380.4z" class="st2"/></g></g></g><g><g><path d="M350.4,347c1.4,1,2.7,2.1,3.9,3.2c1.2,1.1,2.4,2.3,3.5,3.6c1.1,1.2,2.2,2.5,3.2,3.8c1,1.3,1.9,2.7,2.7,4.2 c-1.4-1-2.7-2.1-3.9-3.2c-1.2-1.1-2.4-2.3-3.5-3.6c-1.1-1.2-2.2-2.5-3.2-3.8C352.1,349.9,351.2,348.5,350.4,347z" class="st2"/></g><g><path d="M363.6,361.8c0.8-1.5,1.8-2.9,2.8-4.2c1-1.3,2-2.6,3.2-3.8c1.1-1.2,2.3-2.4,3.5-3.6 c1.2-1.1,2.5-2.2,3.9-3.2c-0.8,1.5-1.8,2.9-2.7,4.2c-1,1.3-2,2.6-3.2,3.8c-1.1,1.2-2.3,2.4-3.5,3.6 C366.3,359.8,365.1,360.8,363.6,361.8z" class="st2"/></g></g><g><g><path d="M350.4,376.6c0.8-1.5,1.8-2.9,2.8-4.2c1-1.3,2-2.6,3.2-3.8c1.1-1.2,2.3-2.4,3.5-3.6 c1.2-1.1,2.5-2.2,3.9-3.2c-0.8,1.5-1.8,2.9-2.7,4.2c-1,1.3-2,2.6-3.2,3.8c-1.1,1.2-2.3,2.4-3.5,3.6 C353.1,374.6,351.8,375.6,350.4,376.6z" class="st2"/></g><g><path d="M363.6,361.8c1.4,1,2.7,2.1,3.9,3.2c1.2,1.1,2.4,2.3,3.5,3.6c1.1,1.2,2.2,2.5,3.2,3.8 c1,1.3,1.9,2.7,2.7,4.2c-1.4-1-2.7-2.1-3.9-3.2c-1.2-1.1-2.4-2.3-3.5-3.6c-1.1-1.2-2.2-2.5-3.2-3.8 C365.4,364.7,364.5,363.3,363.6,361.8z" class="st2"/></g></g></g></g></g></svg>